HIERARCHY
ROOT Hips
{
	OFFSET 0.000000 0.000000 0.000000
	CHANNELS 6 Xposition Yposition Zposition Zrotation Yrotation Xrotation
	JOINT LHipJoint
	{
		OFFSET 0.000000 0.000000 0.000000
		CHANNELS 3 Zrotation Yrotation Xrotation
		JOINT LeftUpLeg
		{
			OFFSET 1.363060 -1.794630 0.839290
			CHANNELS 3 Zrotation Yrotation Xrotation
			JOINT LeftLeg
			{
				OFFSET 2.448110 -6.726130 0.000000
				CHANNELS 3 Zrotation Yrotation Xrotation
				JOINT LeftFoot
				{
					OFFSET 2.562200 -7.039590 0.000000
					CHANNELS 3 Zrotation Yrotation Xrotation
					JOINT LeftToeBase
					{
						OFFSET 0.157640 -0.433110 2.322550
						CHANNELS 3 Zrotation Yrotation Xrotation
						End Site
						{
							OFFSET 0.000000 0.000000 0.000000
						}
					}
				}
			}
		}
	}
	JOINT RHipJoint
	{
		OFFSET 0.000000 0.000000 0.000000
		CHANNELS 3 Zrotation Yrotation Xrotation
		JOINT RightUpLeg
		{
			OFFSET -1.305520 -1.794630 0.839290
			CHANNELS 3 Zrotation Yrotation Xrotation
			JOINT RightLeg
			{
				OFFSET -2.542530 -6.985550 0.000000
				CHANNELS 3 Zrotation Yrotation Xrotation
				JOINT RightFoot
				{
					OFFSET -2.568260 -7.056230 0.000000
					CHANNELS 3 Zrotation Yrotation Xrotation
					JOINT RightToeBase
					{
						OFFSET -0.164730 -0.452590 2.363150
						CHANNELS 3 Zrotation Yrotation Xrotation
						End Site
						{
							OFFSET 0.000000 0.000000 0.000000
						}
					}
				}
			}
		}
	}
	JOINT LowerBack
	{
		OFFSET 0.000000 0.000000 0.000000
		CHANNELS 3 Zrotation Yrotation Xrotation
		JOINT Spine
		{
			OFFSET 0.028270 2.035590 -0.193380
			CHANNELS 3 Zrotation Yrotation Xrotation
			JOINT Spine1
			{
				OFFSET 0.056720 2.048850 -0.042750
				CHANNELS 3 Zrotation Yrotation Xrotation
				JOINT Neck
				{
					OFFSET 0.000000 0.000000 0.000000
					CHANNELS 3 Zrotation Yrotation Xrotation
					JOINT Neck1
					{
						OFFSET -0.054170 1.746240 0.172020
						CHANNELS 3 Zrotation Yrotation Xrotation
						JOINT Head
						{
							OFFSET 0.104070 1.761360 -0.123970
							CHANNELS 3 Zrotation Yrotation Xrotation
							End Site
							{
								OFFSET 0.000000 0.000000 0.000000
							}
						}
					}
				}
				JOINT LeftShoulder
				{
					OFFSET 0.000000 0.000000 0.000000
					CHANNELS 3 Zrotation Yrotation Xrotation
					JOINT LeftArm
					{
						OFFSET 3.362410 1.200890 -0.311210
						CHANNELS 3 Zrotation Yrotation Xrotation
						JOINT LeftForeArm
						{
							OFFSET 4.983000 -0.000000 -0.000000
							CHANNELS 3 Zrotation Yrotation Xrotation
							JOINT LeftHand
							{
								OFFSET 3.483560 -0.000000 -0.000000
								CHANNELS 3 Zrotation Yrotation Xrotation
								JOINT LeftFingerBase
								{
									OFFSET 0.000000 0.000000 0.000000
									CHANNELS 3 Zrotation Yrotation Xrotation
									JOINT LeftHandIndex1
									{
										OFFSET 0.715260 -0.000000 -0.000000
										CHANNELS 3 Zrotation Yrotation Xrotation
										End Site
										{
											OFFSET 0.000000 0.000000 0.000000
										}
									}
								}
								JOINT LThumb
								{
									OFFSET 0.000000 0.000000 0.000000
									CHANNELS 3 Zrotation Yrotation Xrotation
									End Site
									{
										OFFSET 0.000000 0.000000 0.000000
									}
								}
							}
						}
					}
				}
				JOINT RightShoulder
				{
					OFFSET 0.000000 0.000000 0.000000
					CHANNELS 3 Zrotation Yrotation Xrotation
					JOINT RightArm
					{
						OFFSET -3.136600 1.374050 -0.404650
						CHANNELS 3 Zrotation Yrotation Xrotation
						JOINT RightForeArm
						{
							OFFSET -5.241900 -0.000000 -0.000000
							CHANNELS 3 Zrotation Yrotation Xrotation
							JOINT RightHand
							{
								OFFSET -3.444170 -0.000000 -0.000000
								CHANNELS 3 Zrotation Yrotation Xrotation
								JOINT RightFingerBase
								{
									OFFSET 0.000000 0.000000 0.000000
									CHANNELS 3 Zrotation Yrotation Xrotation
									JOINT RightHandIndex1
									{
										OFFSET -0.622530 -0.000000 -0.000000
										CHANNELS 3 Zrotation Yrotation Xrotation
										End Site
										{
											OFFSET 0.000000 0.000000 0.000000
										}
									}
								}
								JOINT RThumb
								{
									OFFSET 0.000000 0.000000 0.000000
									CHANNELS 3 Zrotation Yrotation Xrotation
									End Site
									{
										OFFSET 0.000000 0.000000 0.000000
									}
								}
							}
						}
					}
				}
			}
		}
	}
}
MOTION
Frames: 6
Frame Time: 0.008333
1.571501 0.425984 12.391519 8.790406 5.160027 -0.008319 -0.043576 -1.451625 -4.274653 -4.127325 -2.797573 43.031548 2.715214 -9.128698 0.611056 1.483454 -8.303209 -6.245944 -0.181931 -6.239700 4.609326 -0.920819 -0.562953 -1.676448 -10.818128 2.823310 -9.178815 -1.207925 -3.089062 13.574352 -2.776338 -8.762642 -6.634295 0.631600 -0.618218 -5.785532 -6.108276 -1.400754 -3.445029 0.611450 -3.094442 -1.075420 0.032438 -2.446715 -2.052337 1.290281 -1.898466 -3.374813 1.747965 -0.454689 2.913728 1.438398 0.354509 0.983993 -0.978743 -0.642483 0.624597 -30.512016 3.040514 1.895187 -1.959874 -0.783280 -1.335185 0.464655 0.243861 -26.906588 2.156068 -7.057673 6.749385 -0.915875 0.000000 0.000000 2.409694 -41.174389 14.769748 -0.473283 -2.318034 -0.386346 7.446200 -14.139135 -8.203493 2.594098 14.973620 -2.507135 0.337950 -0.815390 -2.081563 -39.928711 -20.890827 32.722866 -0.929621 0.000000 0.000000 19.961823 12.147263 -7.963281
1.590883 0.407998 12.334498 8.863260 5.212126 -0.006657 -0.057523 -1.459528 -4.303710 -4.253765 -2.808295 43.567635 2.686013 -9.313518 0.807533 1.542183 -8.227216 -6.196485 -0.200316 -6.363308 4.424363 -0.813139 -0.553818 -1.691033 -11.037650 2.986762 -9.272303 -1.123212 -2.937831 13.012141 -2.750827 -8.956881 -7.096856 0.653106 -0.634025 -5.942614 -6.085440 -1.457452 -3.486359 0.637366 -3.142148 -1.095686 0.059549 -2.459748 -2.053562 1.280113 -1.892590 -3.414098 1.754531 -0.555082 2.861388 1.417705 0.340053 0.969502 -0.966906 -0.645257 0.630239 -30.962830 2.842375 1.500959 -1.974606 -0.744236 -1.342921 0.479089 0.241219 -27.097080 2.185989 -7.139589 6.828547 -0.909520 0.000000 0.000000 2.306833 -41.792740 14.716384 -0.490701 -2.367347 -0.391354 7.447539 -14.212780 -8.334359 2.517545 15.033509 -2.636451 0.334132 -0.822155 -2.126682 -40.722775 -21.331751 32.531322 -0.936408 0.000000 0.000000 19.543070 11.900829 -7.839976
1.621751 0.425233 12.418119 8.958330 5.294931 0.014146 -0.052472 -1.448940 -4.322559 -4.360118 -2.808573 44.158260 2.664834 -9.461940 1.025796 1.596381 -8.164198 -6.163072 -0.224786 -6.514925 4.095696 -0.774179 -0.563377 -1.732611 -11.316377 3.093656 -9.455050 -1.053853 -2.814568 12.435191 -2.740235 -9.265909 -7.622700 0.659725 -0.681154 -6.168449 -6.086839 -1.532141 -3.579681 0.652665 -3.199450 -1.136049 0.067278 -2.483505 -2.073885 1.257324 -1.898725 -3.472991 1.754708 -0.662680 2.799918 1.392607 0.323748 0.955837 -0.959453 -0.654808 0.635716 -31.462053 2.655156 1.122432 -2.005054 -0.680760 -1.350754 0.489245 0.230151 -27.435261 2.170208 -7.254787 6.874777 -0.905048 0.000000 0.000000 2.232087 -42.322910 14.738287 -0.498795 -2.410311 -0.394013 7.488537 -14.271610 -8.445339 2.479908 15.125168 -2.745939 0.332663 -0.826561 -2.152441 -41.460907 -21.720713 32.490669 -0.941091 0.000000 0.000000 19.379911 11.765475 -7.586673
1.658056 0.439571 12.513535 9.053473 5.373399 0.030427 -0.042758 -1.432927 -4.339067 -4.449728 -2.801230 44.772942 2.652263 -9.570605 1.318326 1.664145 -8.035213 -6.021464 -0.233894 -6.615132 3.910081 -0.677145 -0.547069 -1.726460 -11.446851 3.287525 -9.485252 -0.952954 -2.634568 12.039673 -2.699077 -9.469052 -7.997015 0.680801 -0.683765 -6.261317 -6.055845 -1.593347 -3.626414 0.679363 -3.239494 -1.145485 0.087882 -2.501008 -2.063868 1.261072 -1.889645 -3.507292 1.765912 -0.750997 2.767541 1.385379 0.316820 0.962433 -0.934039 -0.647321 0.645768 -31.889965 2.515285 0.846439 -2.016783 -0.587914 -1.354008 0.500281 0.220749 -27.770588 2.176765 -7.356215 6.919695 -0.901682 0.000000 0.000000 2.160709 -42.830784 14.774218 -0.503841 -2.450876 -0.395896 7.544434 -14.326552 -8.551045 2.452064 15.224450 -2.848737 0.332037 -0.829924 -2.168913 -42.173439 -22.087004 32.485928 -0.946542 0.000000 0.000000 19.174639 11.552129 -7.412094
1.732861 0.414277 12.464190 9.074035 5.306326 -0.121091 -0.158327 -1.460450 -4.412102 -4.713146 -2.932156 44.967209 2.571519 -9.732924 1.414928 1.707788 -7.992242 -5.955742 -0.260413 -6.767438 3.496946 -0.723140 -0.575745 -1.747297 -11.670382 3.383894 -9.672115 -0.906706 -2.474439 11.674912 -2.674515 -9.772305 -8.449659 0.701466 -0.676389 -6.436826 -6.004502 -1.647421 -3.651756 0.718058 -3.265393 -1.133677 0.107284 -2.527071 -2.099966 1.227593 -1.915513 -3.623552 1.725374 -0.910630 2.632848 1.327999 0.282876 0.917338 -0.976393 -0.701441 0.637927 -32.780525 2.254148 0.425297 -2.062228 -0.494937 -1.361365 0.505000 0.192301 -28.344086 2.097240 -7.486638 6.963845 -0.899800 0.000000 0.000000 2.125651 -43.275612 14.846931 -0.510203 -2.503814 -0.398667 7.594331 -14.386070 -8.662493 2.424381 15.319963 -2.960448 0.331250 -0.833438 -2.187471 -42.910423 -22.461477 32.579163 -0.951754 0.000000 0.000000 19.330894 11.523190 -6.815816
1.757717 0.402143 12.477943 9.105201 5.347547 -0.048329 -0.069412 -1.384753 -4.375572 -4.627077 -2.798705 45.725868 2.629151 -9.737931 1.910551 1.759436 -7.849564 -5.676142 -0.253744 -6.796239 3.612282 -0.547325 -0.519931 -1.648901 -11.398415 3.722655 -9.466736 -0.804691 -2.342864 11.373026 -2.646040 -9.934565 -8.620324 0.735503 -0.637657 -6.205402 -5.948448 -1.705837 -3.686858 0.746904 -3.286966 -1.113401 0.125512 -2.549227 -2.042469 1.248778 -1.903406 -3.610168 1.772615 -0.944649 2.678455 1.364380 0.295221 0.979497 -0.900410 -0.654616 0.662975 -32.973469 2.259747 0.422269 -2.148165 -0.358932 -1.358328 0.514966 0.197742 -28.638409 2.190693 -7.455086 7.002595 -0.897422 0.000000 0.000000 2.013416 -43.810493 14.831214 -0.517894 -2.552358 -0.399885 7.667982 -14.445341 -8.771555 2.394856 15.412218 -3.072343 0.332240 -0.837252 -2.207487 -43.645374 -22.823341 32.690048 -0.958492 0.000000 0.000000 19.057468 11.227108 -6.730491
